# xmcd
#
# Track frame offsets:
# 150
# 17349
# 33929
# 53543
# 68460
# 83494
# 102145
# 122134
# 142182
# 157027
#
# Disc length: 2331 seconds
#
#
# Revision: 0
# Processed by: cddbd v1.5.2PL0 Copyright (c) Steve Scherf et al.
# Submitted via: FreeRIP 2.951 
#
DISCID=7109190a
DTITLE=Modern Talking - 2 nd album - Let's Talk About Love - 1985
DYEAR=1985
DGENRE=Pop
TTITLE0=Cheri Cheri Lady
TTITLE1=With A Little Love
TTITLE2=Wild Wild Water
TTITLE3=You're The Lady Of My Heart
TTITLE4=Just Like An Angel
TTITLE5=Heaven Will Know
TTITLE6=Love Don't Live Here Anymore
TTITLE7=Why Did You Do It Just Tonight
TTITLE8=Don't Give Up
TTITLE9=Let's Talk About Love
EXTD=
EXTT0=
EXTT1=
EXTT2=
EXTT3=
EXTT4=
EXTT5=
EXTT6=
EXTT7=
EXTT8=
EXTT9=
PLAYORDER=
